<svg width="200" height="200" viewBox="0 0 200 200" fill="none" xmlns="http://www.w3.org/2000/svg">
  <!-- Background Circle -->
  <circle cx="100" cy="100" r="90" fill="#0A326E" />
  <circle cx="100" cy="100" r="85" fill="#0F4C81" />
  
  <!-- Soccer Ball Pattern -->
  <path d="M100 30C61.34 30 30 61.34 30 100C30 138.66 61.34 170 100 170C138.66 170 170 138.66 170 100C170 61.34 138.66 30 100 30ZM155.3 70.6L134.7 78.5C132.1 71.3 128.2 64.7 123.2 59.1L137.5 43.5C145.9 50.6 152.2 59.9 155.3 70.6ZM100 45.5C107.2 45.5 114 47.1 120.1 49.9L106.5 64.8C104.4 64.4 102.2 64.1 100 64.1C97.8 64.1 95.6 64.4 93.5 64.8L79.9 49.9C86 47.1 92.8 45.5 100 45.5ZM62.5 43.5L76.8 59.1C71.8 64.7 67.9 71.3 65.3 78.5L44.7 70.6C47.8 59.9 54.1 50.6 62.5 43.5ZM40.5 83.3L60.1 90.8C59.5 93.8 59.1 96.9 59.1 100C59.1 103.1 59.5 106.2 60.1 109.2L40.5 116.7C39.2 111.4 38.5 105.8 38.5 100C38.5 94.2 39.2 88.6 40.5 83.3ZM44.7 129.4L65.3 121.5C67.9 128.7 71.8 135.3 76.8 140.9L62.5 156.5C54.1 149.4 47.8 140.1 44.7 129.4ZM100 154.5C92.8 154.5 86 152.9 79.9 150.1L93.5 135.2C95.6 135.6 97.8 135.9 100 135.9C102.2 135.9 104.4 135.6 106.5 135.2L120.1 150.1C114 152.9 107.2 154.5 100 154.5ZM137.5 156.5L123.2 140.9C128.2 135.3 132.1 128.7 134.7 121.5L155.3 129.4C152.2 140.1 145.9 149.4 137.5 156.5ZM159.5 116.7L139.9 109.2C140.5 106.2 140.9 103.1 140.9 100C140.9 96.9 140.5 93.8 139.9 90.8L159.5 83.3C160.8 88.6 161.5 94.2 161.5 100C161.5 105.8 160.8 111.4 159.5 116.7Z" fill="#FFFFFF" fill-opacity="0.15"/>
  
  <!-- Trophy Icon -->
  <path d="M100 55C88.954 55 80 63.954 80 75V85H75C69.477 85 65 89.477 65 95C65 100.523 69.477 105 75 105H80V110C80 115 85 125 100 125C115 125 120 115 120 110V105H125C130.523 105 135 100.523 135 95C135 89.477 130.523 85 125 85H120V75C120 63.954 111.046 55 100 55Z" fill="#FFD700"/>
  <path d="M95 125V135H105V125H95Z" fill="#FFD700"/>
  <path d="M90 135H110V145H90V135Z" fill="#FFD700"/>
  
  <!-- Text -->
  <path d="M45 160H155C157.761 160 160 162.239 160 165V165C160 167.761 157.761 170 155 170H45C42.2386 170 40 167.761 40 165V165C40 162.239 42.2386 160 45 160Z" fill="#0A326E"/>
  <text x="100" y="167" font-family="Arial, sans-serif" font-size="12" font-weight="bold" fill="white" text-anchor="middle">FIFA COMPETITION MANAGER</text>
</svg>

