<svg width="60" height="60" viewBox="0 0 60 60" fill="none" xmlns="http://www.w3.org/2000/svg">
  <!-- Background Circle -->
  <circle cx="30" cy="30" r="28" fill="#0A326E" />
  <circle cx="30" cy="30" r="25" fill="#0F4C81" />
  
  <!-- Soccer Ball Pattern -->
  <path d="M30 10C19.402 10 10 19.402 10 30C10 40.598 19.402 50 30 50C40.598 50 50 40.598 50 30C50 19.402 40.598 10 30 10ZM45.59 21.18L40.41 23.55C39.63 21.39 38.46 19.41 36.96 17.73L40.25 13.05C42.77 15.18 44.74 17.97 45.59 21.18ZM30 14.65C32.16 14.65 34.2 15.13 36.03 15.97L32.95 19.44C32.32 19.28 31.67 19.2 31 19.2C30.33 19.2 29.68 19.28 29.05 19.44L25.97 15.97C27.8 15.13 29.84 14.65 30 14.65ZM19.75 13.05L23.04 17.73C21.54 19.41 20.37 21.39 19.59 23.55L14.41 21.18C15.26 17.97 17.23 15.18 19.75 13.05ZM12.15 24.99L17.03 27.24C16.85 28.14 16.73 29.06 16.73 30C16.73 30.94 16.85 31.86 17.03 32.76L12.15 35.01C11.76 33.42 11.55 31.74 11.55 30C11.55 28.26 11.76 26.58 12.15 24.99ZM14.41 38.82L19.59 36.45C20.37 38.61 21.54 40.59 23.04 42.27L19.75 46.95C17.23 44.82 15.26 42.03 14.41 38.82ZM30 45.35C27.84 45.35 25.8 44.87 23.97 44.03L27.05 40.56C27.68 40.72 28.33 40.8 29 40.8C29.67 40.8 30.32 40.72 30.95 40.56L34.03 44.03C32.2 44.87 30.16 45.35 30 45.35ZM40.25 46.95L36.96 42.27C38.46 40.59 39.63 38.61 40.41 36.45L45.59 38.82C44.74 42.03 42.77 44.82 40.25 46.95ZM47.85 35.01L42.97 32.76C43.15 31.86 43.27 30.94 43.27 30C43.27 29.06 43.15 28.14 42.97 27.24L47.85 24.99C48.24 26.58 48.45 28.26 48.45 30C48.45 31.74 48.24 33.42 47.85 35.01Z" fill="#FFFFFF" fill-opacity="0.15"/>
  
  <!-- Trophy Icon -->
  <path d="M30 17C26.686 17 24 19.686 24 23V26H22C20.343 26 19 27.343 19 29C19 30.657 20.343 32 22 32H24V34C24 36 26 39 30 39C34 39 36 36 36 34V32H38C39.657 32 41 30.657 41 29C41 27.343 39.657 26 38 26H36V23C36 19.686 33.314 17 30 17Z" fill="#FFD700"/>
  <path d="M28 39V42H32V39H28Z" fill="#FFD700"/>
  <path d="M26 42H34V45H26V42Z" fill="#FFD700"/>
</svg>

