<svg width="200" height="60" viewBox="0 0 200 60" fill="none" xmlns="http://www.w3.org/2000/svg">
  <!-- Background -->
  <rect width="200" height="60" rx="8" fill="#0A326E"/>
  
  <!-- Soccer Ball Icon -->
  <circle cx="30" cy="30" r="20" fill="#FFFFFF"/>
  <path d="M30 15C22.268 15 16 21.268 16 29C16 36.732 22.268 43 30 43C37.732 43 44 36.732 44 29C44 21.268 37.732 15 30 15ZM40.06 22.18L35.94 24.55C35.23 22.39 34.14 20.41 32.64 18.73L36.25 14.85C38.47 16.98 39.74 19.47 40.06 22.18ZM30 18.65C31.94 18.65 33.8 19.13 35.53 19.97L32.13 23.69C31.45 23.52 30.73 23.43 30 23.43C29.27 23.43 28.55 23.52 27.87 23.69L24.47 19.97C26.2 19.13 28.06 18.65 30 18.65ZM23.75 14.85L27.36 18.73C25.86 20.41 24.77 22.39 24.06 24.55L19.94 22.18C20.26 19.47 21.53 16.98 23.75 14.85ZM18.15 25.99L22.03 28.24C21.85 29.14 21.73 30.06 21.73 29.99C21.73 30.93 21.85 31.85 22.03 32.75L18.15 35C17.78 33.4 17.55 31.72 17.55 29.99C17.55 28.27 17.78 26.59 18.15 25.99ZM19.94 37.81L24.06 35.44C24.77 37.6 25.86 39.58 27.36 41.26L23.75 45.14C21.53 43.01 20.26 40.52 19.94 37.81ZM30 41.34C28.06 41.34 26.2 40.86 24.47 40.02L27.87 36.3C28.55 36.47 29.27 36.56 30 36.56C30.73 36.56 31.45 36.47 32.13 36.3L35.53 40.02C33.8 40.86 31.94 41.34 30 41.34ZM36.25 45.14L32.64 41.26C34.14 39.58 35.23 37.6 35.94 35.44L40.06 37.81C39.74 40.52 38.47 43.01 36.25 45.14ZM41.85 35L37.97 32.75C38.15 31.85 38.27 30.93 38.27 29.99C38.27 29.06 38.15 28.14 37.97 27.24L41.85 24.99C42.22 26.59 42.45 28.27 42.45 29.99C42.45 31.72 42.22 33.4 41.85 35Z" fill="#0A326E"/>
  
  <!-- Trophy Icon -->
  <circle cx="60" cy="30" r="15" fill="#FFD700"/>
  <path d="M60 20C57.791 20 56 21.791 56 24V26H55C53.895 26 53 26.895 53 28C53 29.105 53.895 30 55 30H56V31C56 32 57 35 60 35C63 35 64 32 64 31V30H65C66.105 30 67 29.105 67 28C67 26.895 66.105 26 65 26H64V24C64 21.791 62.209 20 60 20Z" fill="#0A326E"/>
  <path d="M59 35V37H61V35H59Z" fill="#0A326E"/>
  <path d="M58 37H62V39H58V37Z" fill="#0A326E"/>
  
  <!-- Text -->
  <text x="120" y="25" font-family="Arial, sans-serif" font-size="14" font-weight="bold" fill="white" text-anchor="middle">FIFA</text>
  <text x="120" y="40" font-family="Arial, sans-serif" font-size="12" font-weight="bold" fill="white" text-anchor="middle">COMPETITION MANAGER</text>
</svg>

